<svg
  class="svg-icon"
  style="
    width: 1em;
    height: 1em;
    vertical-align: middle;
    fill: currentColor;
    overflow: hidden;
  "
  viewBox="0 0 1024 1024"
  version="1.1"
  xmlns="http://www.w3.org/2000/svg"
>
  <path
    d="M162.072654 530.459789L36.926214 654.120266a59.167193 59.167193 0 0 0-17.443365 42.11619c0 15.907314 6.194294 30.867118 17.443365 42.107841l248.978054 249.416329c23.232776 23.220254 61.012125 23.220254 84.22403 0.016696l102.965526-100.244043 19.622221-18.194695a18.799932 18.799932 0 0 0 6.002287-13.306879 18.804106 18.804106 0 0 0-5.346961-13.590715l-304.668262-311.747454a18.795758 18.795758 0 0 0-26.630455-0.233747z"
    fill="#EBEBEB"
  />
  <path
    d="M175.275182 506.258633a37.55395 37.55395 0 0 0-26.405055 10.848362L23.798819 640.683992l-0.158614 0.154439A77.846078 77.846078 0 0 0 0.695439 696.232281c0 20.932873 8.151924 40.605182 22.94894 55.39385l248.965532 249.399634a77.829382 77.829382 0 0 0 55.41472 22.973985c20.795129 0 40.358913-8.055921 55.130885-22.69015l102.735953-100.022818 19.60135-18.177999a37.587342 37.587342 0 0 0 1.314827-53.80771l-304.668262-311.739106a37.578994 37.578994 0 0 0-26.538626-11.307508l-0.325576 0.004174zM38.261911 696.236456c0-10.435131 3.982046-20.870262 11.941964-28.826007l125.071307-123.576996 304.668262 311.739106-19.95197 18.520271-103.140836 100.411006a40.642749 40.642749 0 0 1-28.826007 11.941964c-10.435131 0-20.866088-3.982046-28.826006-11.941964L50.203875 725.074984A40.697011 40.697011 0 0 1 38.261911 696.236456z m344.901953 305.064796l0.250443-0.250443-0.250443 0.250443z m-0.108525 0.104352l0.091829-0.087655a0.592715 0.592715 0 0 0-0.091829 0.087655z"
    fill="#B2B2B2"
  />
  <path
    d="M698.513526 18.779396a59.125453 59.125453 0 0 0-42.103667 17.443365L177.771266 514.715263a18.795758 18.795758 0 0 0-5.501401 13.286009v0.016696c0 4.975471 1.991023 9.763109 5.518097 13.286009l306.884684 306.045699a18.770714 18.770714 0 0 0 26.609584-0.087655L987.140905 366.824411c11.186461-11.182286 17.380754-26.14209 17.380754-42.049405s-6.194294-30.862944-17.447539-42.107841L740.629715 36.218587a59.171367 59.171367 0 0 0-42.116189-17.439191z"
    fill="#F7C3DF"
  />
  <path
    d="M698.5177 0.000334a77.766771 77.766771 0 0 0-55.39385 22.94894L164.489431 501.433428a37.558124 37.558124 0 0 0 0.033392 53.16908l306.884684 306.041525a37.558124 37.558124 0 0 0 26.534451 10.965236h0.108526a37.570646 37.570646 0 0 0 26.572018-11.128024L1000.481176 380.043635c-0.029218 0.029218-0.054263 0.058437-0.087655 0.083481a77.800163 77.800163 0 0 0 22.898852-55.347936c0-20.924525-8.143576-40.596834-22.94894-55.393849l-246.436057-246.444405A77.812686 77.812686 0 0 0 698.5177 0.000334zM191.048926 528.001272L669.691694 49.504596A40.61353 40.61353 0 0 1 698.513526 37.566806c10.435131 0 20.870262 3.977872 28.821832 11.93779l246.448579 246.448578c7.964092 7.959918 11.941964 18.395049 11.941964 28.826006s-3.977872 20.870262-11.941964 28.830181l-475.850327 480.433436-306.884684-306.041525z"
    fill="#D173A6"
  />
</svg>
