<?xml version="1.0" standalone="no"?>
<!DOCTYPE svg PUBLIC "-//W3C//DTD SVG 20010904//EN" "http://www.w3.org/TR/2001/REC-SVG-20010904/DTD/svg10.dtd">
<svg
  version="1.0"
  xmlns="http://www.w3.org/2000/svg"
  width="700.000000pt"
  height="700.000000pt"
  viewBox="0 0 700.000000 700.000000"
  preserveAspectRatio="xMidYMid meet"
>
  <metadata>Skalon</metadata>
  <g
    transform="translate(0.000000,700.000000) scale(0.100000,-0.100000)"
    fill="#000000"
    stroke="none"
  >
    <path
      d="M2440 6008 c-30 -15 -65 -48 -104 -98 -33 -41 -107 -122 -166 -180
-269 -266 -606 -433 -951 -470 -123 -13 -176 -36 -214 -90 -53 -77 -46 -177
16 -245 54 -59 90 -69 213 -62 318 20 691 166 992 389 126 94 346 309 427 418
65 88 84 146 68 207 -35 128 -166 189 -281 131z"
    />
    <path
      d="M4685 5671 c-117 -54 -150 -196 -71 -304 13 -17 72 -54 159 -98 312
-158 532 -350 700 -609 70 -109 117 -203 156 -313 40 -115 45 -122 92 -157 77
-55 177 -49 249 16 77 70 79 165 7 343 -187 460 -545 837 -1021 1072 -154 76
-197 84 -271 50z"
    />
    <path
      d="M2434 4855 c-246 -53 -459 -315 -528 -648 -20 -95 -20 -262 -1 -345
44 -187 189 -333 376 -377 279 -65 486 110 598 509 136 483 32 807 -279 866
-66 12 -89 12 -166 -5z"
    />
    <path
      d="M4269 4727 c-310 -106 -442 -542 -292 -962 79 -219 230 -433 377
-534 94 -65 153 -85 246 -86 71 0 94 4 140 26 105 50 197 150 268 294 239 483
101 1022 -313 1220 -112 53 -161 65 -272 65 -65 0 -106 -7 -154 -23z"
    />
    <path
      d="M5355 2853 c-70 -36 -115 -104 -115 -172 0 -21 -6 -73 -14 -113 -65
-341 -339 -759 -572 -874 -67 -33 -87 -39 -143 -39 -101 0 -140 25 -327 205
-446 431 -746 552 -1064 429 -99 -38 -194 -101 -365 -244 -155 -129 -233 -173
-319 -182 -143 -15 -318 84 -467 264 -70 84 -117 113 -186 113 -98 -1 -172
-60 -194 -156 -16 -72 0 -119 72 -208 152 -189 355 -331 554 -387 103 -29 268
-32 365 -5 136 37 279 122 430 256 103 90 194 156 243 175 72 27 176 18 257
-22 100 -50 221 -147 380 -305 164 -162 224 -211 325 -261 185 -93 394 -94
589 -3 241 111 483 372 645 694 95 189 163 404 180 565 10 103 2 154 -32 206
-47 72 -168 104 -242 64z"
    />
  </g>
</svg>
