<?xml version="1.0" standalone="no"?>
<!DOCTYPE svg PUBLIC "-//W3C//DTD SVG 20010904//EN"
 "http://www.w3.org/TR/2001/REC-SVG-20010904/DTD/svg10.dtd">
<svg version="1.0" xmlns="http://www.w3.org/2000/svg"
 width="1024.000000pt" height="1024.000000pt" viewBox="0 0 1024.000000 1024.000000"
 preserveAspectRatio="xMidYMid meet">
<metadata>
Created by potrace 1.11, written by Peter Selinger 2001-2013
</metadata>
<g transform="translate(0.000000,1024.000000) scale(0.100000,-0.100000)"
fill="#000000" stroke="none">
<path d="M755 7462 c-71 -8 -195 -45 -270 -81 -193 -94 -342 -254 -422 -451
-30 -75 -36 -93 -50 -166 -5 -21 -8 -761 -8 -1644 0 -1750 -3 -1659 58 -1810
79 -197 229 -357 423 -451 130 -63 213 -80 404 -84 91 -2 168 -4 171 -4 3 -1
6 -85 5 -188 -1 -104 0 -199 2 -213 l4 -25 611 2 c337 0 624 2 638 2 l26 1 0
205 c0 113 3 208 6 212 4 3 1251 7 2772 7 l2765 1 1 -25 c1 -14 1 -109 1 -212
1 -184 1 -188 22 -189 11 -1 299 -2 638 -2 609 -2 617 -2 620 18 2 11 3 108 2
215 l-1 195 141 0 c77 -1 159 2 181 6 22 4 57 10 78 13 121 19 298 116 407
225 115 113 195 251 236 406 18 67 19 140 19 1695 0 1827 6 1672 -76 1848
-117 252 -317 412 -604 483 -40 10 -963 13 -4410 13 -2398 1 -4373 0 -4390 -2z"/>
</g>
</svg>
